<mxfile host="app.diagrams.net" modified="2024-03-14T17:23:42.478Z" agent="Mozilla/5.0 (Macintosh; Intel Mac OS X 10_15_7) AppleWebKit/537.36 (KHTML, like Gecko) Chrome/122.0.0.0 Safari/537.36" etag="S8-ME40O0bKMTZclP6Q4" version="24.0.6" type="google">
  <diagram name="Sayfa -1" id="4i9CbkWdti4cqdcVy_dD">
    <mxGraphModel dx="2007" dy="600" grid="1" gridSize="10" guides="1" tooltips="1" connect="1" arrows="1" fold="1" page="1" pageScale="1" pageWidth="1100" pageHeight="850" math="0" shadow="0">
      <root>
        <mxCell id="0" />
        <mxCell id="1" parent="0" />
        <mxCell id="MsSEAPdzDfHdSmDX0WlZ-4" style="edgeStyle=orthogonalEdgeStyle;rounded=0;orthogonalLoop=1;jettySize=auto;html=1;endArrow=none;endFill=0;" parent="1" target="MsSEAPdzDfHdSmDX0WlZ-2" edge="1">
          <mxGeometry relative="1" as="geometry">
            <mxPoint x="260" y="175" as="sourcePoint" />
          </mxGeometry>
        </mxCell>
        <mxCell id="MsSEAPdzDfHdSmDX0WlZ-8" style="edgeStyle=orthogonalEdgeStyle;rounded=0;orthogonalLoop=1;jettySize=auto;html=1;fontFamily=Helvetica;fontSize=12;fontColor=default;endArrow=none;endFill=0;" parent="1" source="MsSEAPdzDfHdSmDX0WlZ-1" target="MsSEAPdzDfHdSmDX0WlZ-7" edge="1">
          <mxGeometry relative="1" as="geometry">
            <Array as="points">
              <mxPoint x="260" y="130" />
              <mxPoint x="230" y="130" />
            </Array>
          </mxGeometry>
        </mxCell>
        <mxCell id="MsSEAPdzDfHdSmDX0WlZ-14" style="edgeStyle=orthogonalEdgeStyle;rounded=0;orthogonalLoop=1;jettySize=auto;html=1;fontFamily=Helvetica;fontSize=12;fontColor=default;endArrow=none;endFill=0;" parent="1" source="MsSEAPdzDfHdSmDX0WlZ-1" target="MsSEAPdzDfHdSmDX0WlZ-9" edge="1">
          <mxGeometry relative="1" as="geometry">
            <Array as="points">
              <mxPoint x="300" y="130" />
              <mxPoint x="330" y="130" />
            </Array>
          </mxGeometry>
        </mxCell>
        <mxCell id="MsSEAPdzDfHdSmDX0WlZ-15" style="edgeStyle=orthogonalEdgeStyle;rounded=0;orthogonalLoop=1;jettySize=auto;html=1;entryX=0.5;entryY=1;entryDx=0;entryDy=0;fontFamily=Helvetica;fontSize=12;fontColor=default;endArrow=none;endFill=0;" parent="1" target="MsSEAPdzDfHdSmDX0WlZ-10" edge="1">
          <mxGeometry relative="1" as="geometry">
            <mxPoint x="320" y="175" as="sourcePoint" />
            <Array as="points">
              <mxPoint x="420" y="175" />
            </Array>
          </mxGeometry>
        </mxCell>
        <mxCell id="MsSEAPdzDfHdSmDX0WlZ-16" style="edgeStyle=orthogonalEdgeStyle;rounded=0;orthogonalLoop=1;jettySize=auto;html=1;entryX=0;entryY=0.5;entryDx=0;entryDy=0;fontFamily=Helvetica;fontSize=12;fontColor=default;exitX=1;exitY=0.5;exitDx=0;exitDy=0;endArrow=none;endFill=0;" parent="1" source="MsSEAPdzDfHdSmDX0WlZ-20" edge="1">
          <mxGeometry relative="1" as="geometry">
            <mxPoint x="690" y="262.5" as="targetPoint" />
            <Array as="points">
              <mxPoint x="620" y="297.5" />
              <mxPoint x="650" y="297.5" />
              <mxPoint x="650" y="262.5" />
            </Array>
          </mxGeometry>
        </mxCell>
        <mxCell id="MsSEAPdzDfHdSmDX0WlZ-17" style="edgeStyle=orthogonalEdgeStyle;rounded=0;orthogonalLoop=1;jettySize=auto;html=1;entryX=0;entryY=0.5;entryDx=0;entryDy=0;fontFamily=Helvetica;fontSize=12;fontColor=default;exitX=1;exitY=0.5;exitDx=0;exitDy=0;endArrow=none;endFill=0;" parent="1" source="MsSEAPdzDfHdSmDX0WlZ-20" target="MsSEAPdzDfHdSmDX0WlZ-12" edge="1">
          <mxGeometry relative="1" as="geometry">
            <mxPoint x="740" y="312.5" as="targetPoint" />
            <Array as="points" />
          </mxGeometry>
        </mxCell>
        <mxCell id="MsSEAPdzDfHdSmDX0WlZ-18" style="edgeStyle=orthogonalEdgeStyle;rounded=0;orthogonalLoop=1;jettySize=auto;html=1;fontFamily=Helvetica;fontSize=12;fontColor=default;exitX=1;exitY=0.5;exitDx=0;exitDy=0;entryX=0;entryY=0.5;entryDx=0;entryDy=0;endArrow=none;endFill=0;" parent="1" source="MsSEAPdzDfHdSmDX0WlZ-20" target="MsSEAPdzDfHdSmDX0WlZ-13" edge="1">
          <mxGeometry relative="1" as="geometry">
            <mxPoint x="740" y="362.5" as="targetPoint" />
            <Array as="points">
              <mxPoint x="620" y="327.5" />
              <mxPoint x="650" y="327.5" />
              <mxPoint x="650" y="362.5" />
            </Array>
          </mxGeometry>
        </mxCell>
        <mxCell id="MsSEAPdzDfHdSmDX0WlZ-1" value="User" style="rounded=0;whiteSpace=wrap;html=1;movable=1;resizable=1;rotatable=1;deletable=1;editable=1;locked=0;connectable=1;" parent="1" vertex="1">
          <mxGeometry x="230" y="160" width="100" height="30" as="geometry" />
        </mxCell>
        <mxCell id="MsSEAPdzDfHdSmDX0WlZ-2" value="&lt;u&gt;username&lt;/u&gt;" style="ellipse;whiteSpace=wrap;html=1;movable=1;resizable=1;rotatable=1;deletable=1;editable=1;locked=0;connectable=1;" parent="1" vertex="1">
          <mxGeometry x="100" y="70" width="80" height="30" as="geometry" />
        </mxCell>
        <mxCell id="MsSEAPdzDfHdSmDX0WlZ-7" value="password" style="ellipse;whiteSpace=wrap;html=1;movable=1;resizable=1;rotatable=1;deletable=1;editable=1;locked=0;connectable=1;" parent="1" vertex="1">
          <mxGeometry x="190" y="70" width="80" height="30" as="geometry" />
        </mxCell>
        <mxCell id="MsSEAPdzDfHdSmDX0WlZ-9" value="name" style="ellipse;whiteSpace=wrap;html=1;movable=1;resizable=1;rotatable=1;deletable=1;editable=1;locked=0;connectable=1;" parent="1" vertex="1">
          <mxGeometry x="290" y="70" width="80" height="30" as="geometry" />
        </mxCell>
        <mxCell id="MsSEAPdzDfHdSmDX0WlZ-10" value="surname" style="ellipse;whiteSpace=wrap;html=1;movable=1;resizable=1;rotatable=1;deletable=1;editable=1;locked=0;connectable=1;" parent="1" vertex="1">
          <mxGeometry x="380" y="70" width="80" height="30" as="geometry" />
        </mxCell>
        <mxCell id="MsSEAPdzDfHdSmDX0WlZ-11" value="date_of_birth" style="ellipse;whiteSpace=wrap;html=1;movable=1;resizable=1;rotatable=1;deletable=1;editable=1;locked=0;connectable=1;" parent="1" vertex="1">
          <mxGeometry x="690" y="252.5" width="80" height="30" as="geometry" />
        </mxCell>
        <mxCell id="MsSEAPdzDfHdSmDX0WlZ-12" value="height" style="ellipse;whiteSpace=wrap;html=1;movable=1;resizable=1;rotatable=1;deletable=1;editable=1;locked=0;connectable=1;" parent="1" vertex="1">
          <mxGeometry x="690" y="297.5" width="80" height="30" as="geometry" />
        </mxCell>
        <mxCell id="MsSEAPdzDfHdSmDX0WlZ-13" value="weight" style="ellipse;whiteSpace=wrap;html=1;movable=1;resizable=1;rotatable=1;deletable=1;editable=1;locked=0;connectable=1;" parent="1" vertex="1">
          <mxGeometry x="690" y="347.5" width="80" height="30" as="geometry" />
        </mxCell>
        <mxCell id="3LLZW3G0a-JlGcTK5IqQ-79" style="edgeStyle=orthogonalEdgeStyle;rounded=0;orthogonalLoop=1;jettySize=auto;html=1;entryX=1;entryY=0.5;entryDx=0;entryDy=0;strokeWidth=1;endArrow=none;endFill=0;exitX=0.688;exitY=-0.017;exitDx=0;exitDy=0;fillColor=#dae8fc;strokeColor=#050300;startArrow=none;startFill=0;exitPerimeter=0;" edge="1" parent="1" source="MsSEAPdzDfHdSmDX0WlZ-20" target="3LLZW3G0a-JlGcTK5IqQ-80">
          <mxGeometry relative="1" as="geometry">
            <mxPoint x="950" y="370" as="sourcePoint" />
            <Array as="points">
              <mxPoint x="590" y="297" />
              <mxPoint x="590" y="220" />
              <mxPoint x="970" y="220" />
              <mxPoint x="970" y="730" />
            </Array>
          </mxGeometry>
        </mxCell>
        <mxCell id="MsSEAPdzDfHdSmDX0WlZ-20" value="Player" style="rounded=0;whiteSpace=wrap;html=1;movable=1;resizable=1;rotatable=1;deletable=1;editable=1;locked=0;connectable=1;" parent="1" vertex="1">
          <mxGeometry x="520" y="297.5" width="100" height="30" as="geometry" />
        </mxCell>
        <mxCell id="MsSEAPdzDfHdSmDX0WlZ-26" style="edgeStyle=orthogonalEdgeStyle;rounded=0;orthogonalLoop=1;jettySize=auto;html=1;entryX=0.5;entryY=1;entryDx=0;entryDy=0;fontFamily=Helvetica;fontSize=12;fontColor=default;endArrow=none;endFill=0;" parent="1" source="MsSEAPdzDfHdSmDX0WlZ-25" target="MsSEAPdzDfHdSmDX0WlZ-1" edge="1">
          <mxGeometry relative="1" as="geometry" />
        </mxCell>
        <mxCell id="MsSEAPdzDfHdSmDX0WlZ-27" style="edgeStyle=orthogonalEdgeStyle;rounded=0;orthogonalLoop=1;jettySize=auto;html=1;entryX=0.5;entryY=0;entryDx=0;entryDy=0;fontFamily=Helvetica;fontSize=12;fontColor=default;exitX=0;exitY=0.75;exitDx=0;exitDy=0;endArrow=none;endFill=0;" parent="1" source="MsSEAPdzDfHdSmDX0WlZ-25" target="MsSEAPdzDfHdSmDX0WlZ-20" edge="1">
          <mxGeometry relative="1" as="geometry">
            <mxPoint x="304" y="264" as="sourcePoint" />
            <Array as="points">
              <mxPoint x="291" y="280" />
              <mxPoint x="570" y="280" />
            </Array>
          </mxGeometry>
        </mxCell>
        <mxCell id="MsSEAPdzDfHdSmDX0WlZ-28" style="edgeStyle=orthogonalEdgeStyle;rounded=0;orthogonalLoop=1;jettySize=auto;html=1;fontFamily=Helvetica;fontSize=12;fontColor=default;endArrow=none;endFill=0;" parent="1" source="MsSEAPdzDfHdSmDX0WlZ-25" edge="1" target="MsSEAPdzDfHdSmDX0WlZ-29">
          <mxGeometry relative="1" as="geometry">
            <mxPoint x="280" y="300" as="targetPoint" />
          </mxGeometry>
        </mxCell>
        <mxCell id="MsSEAPdzDfHdSmDX0WlZ-25" value="ISA" style="triangle;whiteSpace=wrap;html=1;rounded=0;strokeColor=default;align=left;verticalAlign=middle;fontFamily=Helvetica;fontSize=12;fontColor=default;fillColor=default;rotation=-90;textDirection=vertical-lr;" parent="1" vertex="1">
          <mxGeometry x="263.75" y="223.75" width="32.5" height="45" as="geometry" />
        </mxCell>
        <mxCell id="MsSEAPdzDfHdSmDX0WlZ-30" style="edgeStyle=orthogonalEdgeStyle;rounded=0;orthogonalLoop=1;jettySize=auto;html=1;fontFamily=Helvetica;fontSize=12;fontColor=default;entryX=0.5;entryY=0;entryDx=0;entryDy=0;endArrow=none;endFill=0;" parent="1" source="MsSEAPdzDfHdSmDX0WlZ-29" target="MsSEAPdzDfHdSmDX0WlZ-33" edge="1">
          <mxGeometry relative="1" as="geometry">
            <mxPoint x="280" y="360" as="targetPoint" />
            <Array as="points">
              <mxPoint x="260" y="350" />
              <mxPoint x="190" y="350" />
            </Array>
          </mxGeometry>
        </mxCell>
        <mxCell id="3LLZW3G0a-JlGcTK5IqQ-49" style="edgeStyle=orthogonalEdgeStyle;rounded=0;orthogonalLoop=1;jettySize=auto;html=1;entryX=0.5;entryY=0;entryDx=0;entryDy=0;endArrow=classic;endFill=1;exitX=0.835;exitY=1.016;exitDx=0;exitDy=0;exitPerimeter=0;" edge="1" parent="1" source="MsSEAPdzDfHdSmDX0WlZ-29" target="3LLZW3G0a-JlGcTK5IqQ-46">
          <mxGeometry relative="1" as="geometry">
            <Array as="points">
              <mxPoint x="314" y="350" />
              <mxPoint x="314" y="410" />
              <mxPoint x="265" y="410" />
            </Array>
          </mxGeometry>
        </mxCell>
        <mxCell id="MsSEAPdzDfHdSmDX0WlZ-29" value="Coach" style="rounded=0;whiteSpace=wrap;html=1;movable=1;resizable=1;rotatable=1;deletable=1;editable=1;locked=0;connectable=1;" parent="1" vertex="1">
          <mxGeometry x="230" y="300" width="100" height="30" as="geometry" />
        </mxCell>
        <mxCell id="MsSEAPdzDfHdSmDX0WlZ-33" value="nationality" style="ellipse;whiteSpace=wrap;html=1;movable=1;resizable=1;rotatable=1;deletable=1;editable=1;locked=0;connectable=1;" parent="1" vertex="1">
          <mxGeometry x="150" y="367.5" width="80" height="30" as="geometry" />
        </mxCell>
        <mxCell id="MsSEAPdzDfHdSmDX0WlZ-34" style="edgeStyle=orthogonalEdgeStyle;rounded=0;orthogonalLoop=1;jettySize=auto;html=1;fontFamily=Helvetica;fontSize=12;fontColor=default;exitX=-0.003;exitY=0.276;exitDx=0;exitDy=0;exitPerimeter=0;entryX=0.5;entryY=0;entryDx=0;entryDy=0;endArrow=none;endFill=0;" parent="1" source="MsSEAPdzDfHdSmDX0WlZ-25" target="MsSEAPdzDfHdSmDX0WlZ-35" edge="1">
          <mxGeometry relative="1" as="geometry">
            <mxPoint x="301" y="273" as="sourcePoint" />
            <mxPoint x="160" y="310" as="targetPoint" />
            <Array as="points">
              <mxPoint x="270" y="280" />
              <mxPoint x="70" y="280" />
            </Array>
          </mxGeometry>
        </mxCell>
        <mxCell id="3LLZW3G0a-JlGcTK5IqQ-93" style="edgeStyle=orthogonalEdgeStyle;rounded=0;orthogonalLoop=1;jettySize=auto;html=1;entryX=0.5;entryY=0;entryDx=0;entryDy=0;endArrow=none;endFill=0;strokeWidth=1;endSize=0;" edge="1" parent="1" source="MsSEAPdzDfHdSmDX0WlZ-35" target="3LLZW3G0a-JlGcTK5IqQ-94">
          <mxGeometry relative="1" as="geometry">
            <mxPoint x="30" y="470" as="targetPoint" />
            <Array as="points">
              <mxPoint x="80" y="420" />
              <mxPoint x="40" y="420" />
            </Array>
          </mxGeometry>
        </mxCell>
        <mxCell id="MsSEAPdzDfHdSmDX0WlZ-35" value="Jury" style="rounded=0;whiteSpace=wrap;html=1;movable=1;resizable=1;rotatable=1;deletable=1;editable=1;locked=0;connectable=1;" parent="1" vertex="1">
          <mxGeometry x="20" y="297.5" width="100" height="30" as="geometry" />
        </mxCell>
        <mxCell id="3LLZW3G0a-JlGcTK5IqQ-1" value="&lt;font color=&quot;#ff0303&quot;&gt;Player and Coach and Jury COVER User&lt;/font&gt;" style="text;html=1;align=center;verticalAlign=middle;resizable=0;points=[];autosize=1;strokeColor=none;fillColor=none;" vertex="1" parent="1">
          <mxGeometry x="170" y="200" width="240" height="30" as="geometry" />
        </mxCell>
        <mxCell id="3LLZW3G0a-JlGcTK5IqQ-4" style="edgeStyle=orthogonalEdgeStyle;rounded=0;orthogonalLoop=1;jettySize=auto;html=1;fontFamily=Helvetica;fontSize=12;fontColor=default;entryX=0.5;entryY=0;entryDx=0;entryDy=0;endArrow=none;endFill=0;" edge="1" parent="1" target="3LLZW3G0a-JlGcTK5IqQ-5" source="MsSEAPdzDfHdSmDX0WlZ-35">
          <mxGeometry relative="1" as="geometry">
            <mxPoint x="80" y="357.5" as="targetPoint" />
            <mxPoint x="80" y="327.5" as="sourcePoint" />
            <Array as="points">
              <mxPoint x="50" y="350" />
              <mxPoint y="350" />
            </Array>
          </mxGeometry>
        </mxCell>
        <mxCell id="3LLZW3G0a-JlGcTK5IqQ-5" value="nationality" style="ellipse;whiteSpace=wrap;html=1;movable=1;resizable=1;rotatable=1;deletable=1;editable=1;locked=0;connectable=1;" vertex="1" parent="1">
          <mxGeometry x="-40" y="370" width="80" height="30" as="geometry" />
        </mxCell>
        <mxCell id="3LLZW3G0a-JlGcTK5IqQ-15" style="edgeStyle=orthogonalEdgeStyle;rounded=0;orthogonalLoop=1;jettySize=auto;html=1;entryX=0;entryY=0.5;entryDx=0;entryDy=0;endArrow=none;endFill=0;" edge="1" parent="1" source="3LLZW3G0a-JlGcTK5IqQ-6" target="3LLZW3G0a-JlGcTK5IqQ-14">
          <mxGeometry relative="1" as="geometry">
            <Array as="points">
              <mxPoint x="810" y="457.5" />
              <mxPoint x="810" y="472.5" />
            </Array>
          </mxGeometry>
        </mxCell>
        <mxCell id="3LLZW3G0a-JlGcTK5IqQ-16" style="edgeStyle=orthogonalEdgeStyle;rounded=0;orthogonalLoop=1;jettySize=auto;html=1;entryX=0;entryY=0.5;entryDx=0;entryDy=0;endArrow=none;endFill=0;" edge="1" parent="1" source="3LLZW3G0a-JlGcTK5IqQ-6" target="3LLZW3G0a-JlGcTK5IqQ-12">
          <mxGeometry relative="1" as="geometry">
            <Array as="points">
              <mxPoint x="810" y="447.5" />
              <mxPoint x="810" y="422.5" />
            </Array>
          </mxGeometry>
        </mxCell>
        <mxCell id="3LLZW3G0a-JlGcTK5IqQ-6" value="Position" style="rounded=0;whiteSpace=wrap;html=1;movable=1;resizable=1;rotatable=1;deletable=1;editable=1;locked=0;connectable=1;" vertex="1" parent="1">
          <mxGeometry x="670" y="437.5" width="100" height="30" as="geometry" />
        </mxCell>
        <mxCell id="3LLZW3G0a-JlGcTK5IqQ-12" value="&lt;u&gt;position_ID&lt;/u&gt;" style="ellipse;whiteSpace=wrap;html=1;movable=1;resizable=1;rotatable=1;deletable=1;editable=1;locked=0;connectable=1;" vertex="1" parent="1">
          <mxGeometry x="850" y="407.5" width="80" height="30" as="geometry" />
        </mxCell>
        <mxCell id="3LLZW3G0a-JlGcTK5IqQ-14" value="position_name" style="ellipse;whiteSpace=wrap;html=1;movable=1;resizable=1;rotatable=1;deletable=1;editable=1;locked=0;connectable=1;" vertex="1" parent="1">
          <mxGeometry x="850" y="457.5" width="80" height="30" as="geometry" />
        </mxCell>
        <mxCell id="3LLZW3G0a-JlGcTK5IqQ-18" style="edgeStyle=orthogonalEdgeStyle;rounded=0;orthogonalLoop=1;jettySize=auto;html=1;entryX=0;entryY=0.5;entryDx=0;entryDy=0;endArrow=none;endFill=0;" edge="1" parent="1" source="3LLZW3G0a-JlGcTK5IqQ-6" target="3LLZW3G0a-JlGcTK5IqQ-12">
          <mxGeometry relative="1" as="geometry">
            <mxPoint x="770" y="447.5" as="sourcePoint" />
            <mxPoint x="850" y="422.5" as="targetPoint" />
            <Array as="points">
              <mxPoint x="810" y="447.5" />
              <mxPoint x="810" y="422.5" />
            </Array>
          </mxGeometry>
        </mxCell>
        <mxCell id="3LLZW3G0a-JlGcTK5IqQ-26" style="edgeStyle=orthogonalEdgeStyle;rounded=0;orthogonalLoop=1;jettySize=auto;html=1;entryX=0.5;entryY=0;entryDx=0;entryDy=0;endArrow=none;endFill=0;" edge="1" parent="1" source="3LLZW3G0a-JlGcTK5IqQ-22" target="3LLZW3G0a-JlGcTK5IqQ-24">
          <mxGeometry relative="1" as="geometry">
            <Array as="points">
              <mxPoint x="420" y="580" />
              <mxPoint x="400" y="580" />
            </Array>
          </mxGeometry>
        </mxCell>
        <mxCell id="3LLZW3G0a-JlGcTK5IqQ-27" style="edgeStyle=orthogonalEdgeStyle;rounded=0;orthogonalLoop=1;jettySize=auto;html=1;exitX=0.75;exitY=1;exitDx=0;exitDy=0;entryX=0.5;entryY=0;entryDx=0;entryDy=0;endArrow=none;endFill=0;" edge="1" parent="1" source="3LLZW3G0a-JlGcTK5IqQ-22" target="3LLZW3G0a-JlGcTK5IqQ-25">
          <mxGeometry relative="1" as="geometry">
            <Array as="points">
              <mxPoint x="460" y="580" />
              <mxPoint x="490" y="580" />
            </Array>
          </mxGeometry>
        </mxCell>
        <mxCell id="3LLZW3G0a-JlGcTK5IqQ-68" style="edgeStyle=orthogonalEdgeStyle;rounded=0;orthogonalLoop=1;jettySize=auto;html=1;entryX=0;entryY=0.5;entryDx=0;entryDy=0;strokeWidth=6;endSize=0;" edge="1" parent="1" source="3LLZW3G0a-JlGcTK5IqQ-22" target="3LLZW3G0a-JlGcTK5IqQ-67">
          <mxGeometry relative="1" as="geometry" />
        </mxCell>
        <mxCell id="3LLZW3G0a-JlGcTK5IqQ-74" style="edgeStyle=orthogonalEdgeStyle;rounded=0;orthogonalLoop=1;jettySize=auto;html=1;entryX=1;entryY=0.5;entryDx=0;entryDy=0;endArrow=none;endFill=0;" edge="1" parent="1" source="3LLZW3G0a-JlGcTK5IqQ-22" target="3LLZW3G0a-JlGcTK5IqQ-76">
          <mxGeometry relative="1" as="geometry">
            <mxPoint x="190" y="580" as="targetPoint" />
            <Array as="points">
              <mxPoint x="310" y="555" />
              <mxPoint x="310" y="575" />
            </Array>
          </mxGeometry>
        </mxCell>
        <mxCell id="3LLZW3G0a-JlGcTK5IqQ-22" value="Team" style="rounded=0;whiteSpace=wrap;html=1;movable=1;resizable=1;rotatable=1;deletable=1;editable=1;locked=0;connectable=1;" vertex="1" parent="1">
          <mxGeometry x="385" y="540" width="100" height="30" as="geometry" />
        </mxCell>
        <mxCell id="3LLZW3G0a-JlGcTK5IqQ-24" value="&lt;u&gt;team_ID&lt;/u&gt;" style="ellipse;whiteSpace=wrap;html=1;movable=1;resizable=1;rotatable=1;deletable=1;editable=1;locked=0;connectable=1;" vertex="1" parent="1">
          <mxGeometry x="360" y="600" width="80" height="30" as="geometry" />
        </mxCell>
        <mxCell id="3LLZW3G0a-JlGcTK5IqQ-25" value="team_name" style="ellipse;whiteSpace=wrap;html=1;movable=1;resizable=1;rotatable=1;deletable=1;editable=1;locked=0;connectable=1;" vertex="1" parent="1">
          <mxGeometry x="450" y="600" width="80" height="30" as="geometry" />
        </mxCell>
        <mxCell id="3LLZW3G0a-JlGcTK5IqQ-31" style="edgeStyle=orthogonalEdgeStyle;rounded=0;orthogonalLoop=1;jettySize=auto;html=1;entryX=0.5;entryY=0;entryDx=0;entryDy=0;endArrow=none;endFill=0;" edge="1" parent="1" target="3LLZW3G0a-JlGcTK5IqQ-29">
          <mxGeometry relative="1" as="geometry">
            <mxPoint x="50" y="650" as="sourcePoint" />
          </mxGeometry>
        </mxCell>
        <mxCell id="3LLZW3G0a-JlGcTK5IqQ-111" style="edgeStyle=orthogonalEdgeStyle;rounded=0;orthogonalLoop=1;jettySize=auto;html=1;entryX=0.5;entryY=0;entryDx=0;entryDy=0;strokeWidth=6;endSize=0;" edge="1" parent="1" source="3LLZW3G0a-JlGcTK5IqQ-28" target="3LLZW3G0a-JlGcTK5IqQ-104">
          <mxGeometry relative="1" as="geometry">
            <Array as="points">
              <mxPoint x="-75" y="650" />
            </Array>
          </mxGeometry>
        </mxCell>
        <mxCell id="3LLZW3G0a-JlGcTK5IqQ-28" value="Match_Sessions" style="rounded=0;whiteSpace=wrap;html=1;movable=1;resizable=1;rotatable=1;deletable=1;editable=1;locked=0;connectable=1;" vertex="1" parent="1">
          <mxGeometry y="630" width="100" height="30" as="geometry" />
        </mxCell>
        <mxCell id="3LLZW3G0a-JlGcTK5IqQ-29" value="&lt;u&gt;session_ID&lt;/u&gt;" style="ellipse;whiteSpace=wrap;html=1;movable=1;resizable=1;rotatable=1;deletable=1;editable=1;locked=0;connectable=1;" vertex="1" parent="1">
          <mxGeometry x="10" y="690" width="80" height="30" as="geometry" />
        </mxCell>
        <mxCell id="3LLZW3G0a-JlGcTK5IqQ-34" style="edgeStyle=orthogonalEdgeStyle;rounded=0;orthogonalLoop=1;jettySize=auto;html=1;entryX=0.5;entryY=0;entryDx=0;entryDy=0;endArrow=none;endFill=0;" edge="1" parent="1" source="3LLZW3G0a-JlGcTK5IqQ-32" target="3LLZW3G0a-JlGcTK5IqQ-33">
          <mxGeometry relative="1" as="geometry" />
        </mxCell>
        <mxCell id="3LLZW3G0a-JlGcTK5IqQ-36" style="edgeStyle=orthogonalEdgeStyle;rounded=0;orthogonalLoop=1;jettySize=auto;html=1;exitX=0.75;exitY=1;exitDx=0;exitDy=0;entryX=0.5;entryY=0;entryDx=0;entryDy=0;endArrow=none;endFill=0;" edge="1" parent="1" source="3LLZW3G0a-JlGcTK5IqQ-32" target="3LLZW3G0a-JlGcTK5IqQ-35">
          <mxGeometry relative="1" as="geometry">
            <Array as="points">
              <mxPoint x="-209.97" y="525" />
              <mxPoint x="-134.97" y="525" />
            </Array>
          </mxGeometry>
        </mxCell>
        <mxCell id="3LLZW3G0a-JlGcTK5IqQ-38" style="edgeStyle=orthogonalEdgeStyle;rounded=0;orthogonalLoop=1;jettySize=auto;html=1;exitX=0.25;exitY=1;exitDx=0;exitDy=0;entryX=0.5;entryY=0;entryDx=0;entryDy=0;endArrow=none;endFill=0;" edge="1" parent="1" target="3LLZW3G0a-JlGcTK5IqQ-37">
          <mxGeometry relative="1" as="geometry">
            <mxPoint x="-245" y="505" as="sourcePoint" />
            <Array as="points">
              <mxPoint x="-254.97" y="505" />
              <mxPoint x="-254.97" y="515" />
              <mxPoint x="-339.97" y="515" />
            </Array>
          </mxGeometry>
        </mxCell>
        <mxCell id="3LLZW3G0a-JlGcTK5IqQ-99" style="edgeStyle=orthogonalEdgeStyle;rounded=0;orthogonalLoop=1;jettySize=auto;html=1;entryX=0.5;entryY=0;entryDx=0;entryDy=0;endArrow=none;endFill=0;" edge="1" parent="1" source="3LLZW3G0a-JlGcTK5IqQ-32" target="3LLZW3G0a-JlGcTK5IqQ-100">
          <mxGeometry relative="1" as="geometry">
            <mxPoint x="-60" y="580" as="targetPoint" />
          </mxGeometry>
        </mxCell>
        <mxCell id="3LLZW3G0a-JlGcTK5IqQ-32" value="Stadium" style="rounded=0;whiteSpace=wrap;html=1;movable=1;resizable=1;rotatable=1;deletable=1;editable=1;locked=0;connectable=1;" vertex="1" parent="1">
          <mxGeometry x="-284.97" y="475" width="100" height="30" as="geometry" />
        </mxCell>
        <mxCell id="3LLZW3G0a-JlGcTK5IqQ-33" value="&lt;u&gt;stadium_id&lt;/u&gt;" style="ellipse;whiteSpace=wrap;html=1;movable=1;resizable=1;rotatable=1;deletable=1;editable=1;locked=0;connectable=1;" vertex="1" parent="1">
          <mxGeometry x="-274.97" y="535" width="80" height="30" as="geometry" />
        </mxCell>
        <mxCell id="3LLZW3G0a-JlGcTK5IqQ-35" value="stadium_name" style="ellipse;whiteSpace=wrap;html=1;movable=1;resizable=1;rotatable=1;deletable=1;editable=1;locked=0;connectable=1;" vertex="1" parent="1">
          <mxGeometry x="-174.97" y="535" width="80" height="30" as="geometry" />
        </mxCell>
        <mxCell id="3LLZW3G0a-JlGcTK5IqQ-37" value="stadium_country" style="ellipse;whiteSpace=wrap;html=1;movable=1;resizable=1;rotatable=1;deletable=1;editable=1;locked=0;connectable=1;" vertex="1" parent="1">
          <mxGeometry x="-390" y="535" width="100" height="30" as="geometry" />
        </mxCell>
        <mxCell id="3LLZW3G0a-JlGcTK5IqQ-40" style="edgeStyle=orthogonalEdgeStyle;rounded=0;orthogonalLoop=1;jettySize=auto;html=1;endArrow=none;endFill=0;strokeWidth=6;" edge="1" parent="1" source="3LLZW3G0a-JlGcTK5IqQ-39" target="MsSEAPdzDfHdSmDX0WlZ-20">
          <mxGeometry relative="1" as="geometry">
            <mxPoint x="600" y="327.5" as="targetPoint" />
            <Array as="points">
              <mxPoint x="620" y="347.5" />
              <mxPoint x="600" y="347.5" />
            </Array>
          </mxGeometry>
        </mxCell>
        <mxCell id="3LLZW3G0a-JlGcTK5IqQ-41" style="edgeStyle=orthogonalEdgeStyle;rounded=0;orthogonalLoop=1;jettySize=auto;html=1;entryX=0;entryY=0.5;entryDx=0;entryDy=0;endArrow=none;endFill=0;" edge="1" parent="1" source="3LLZW3G0a-JlGcTK5IqQ-39" target="3LLZW3G0a-JlGcTK5IqQ-6">
          <mxGeometry relative="1" as="geometry">
            <Array as="points">
              <mxPoint x="620" y="452.5" />
            </Array>
          </mxGeometry>
        </mxCell>
        <mxCell id="3LLZW3G0a-JlGcTK5IqQ-39" value="Can_Play" style="rhombus;whiteSpace=wrap;html=1;" vertex="1" parent="1">
          <mxGeometry x="590" y="367.5" width="60" height="60" as="geometry" />
        </mxCell>
        <mxCell id="3LLZW3G0a-JlGcTK5IqQ-45" style="edgeStyle=orthogonalEdgeStyle;rounded=0;orthogonalLoop=1;jettySize=auto;html=1;endArrow=none;endFill=0;" edge="1" parent="1" source="3LLZW3G0a-JlGcTK5IqQ-43" target="3LLZW3G0a-JlGcTK5IqQ-22">
          <mxGeometry relative="1" as="geometry">
            <mxPoint x="435" y="420" as="sourcePoint" />
            <mxPoint x="450" y="535" as="targetPoint" />
            <Array as="points">
              <mxPoint x="435" y="480" />
              <mxPoint x="435" y="480" />
            </Array>
          </mxGeometry>
        </mxCell>
        <mxCell id="3LLZW3G0a-JlGcTK5IqQ-43" value="Registered" style="rhombus;whiteSpace=wrap;html=1;" vertex="1" parent="1">
          <mxGeometry x="400" y="385" width="70" height="55" as="geometry" />
        </mxCell>
        <mxCell id="3LLZW3G0a-JlGcTK5IqQ-44" style="edgeStyle=orthogonalEdgeStyle;rounded=0;orthogonalLoop=1;jettySize=auto;html=1;endArrow=none;endFill=0;strokeWidth=6;exitX=0.5;exitY=0;exitDx=0;exitDy=0;" edge="1" parent="1" source="3LLZW3G0a-JlGcTK5IqQ-43" target="MsSEAPdzDfHdSmDX0WlZ-20">
          <mxGeometry relative="1" as="geometry">
            <mxPoint x="435" y="365" as="sourcePoint" />
            <mxPoint x="450" y="325" as="targetPoint" />
            <Array as="points">
              <mxPoint x="435" y="310" />
            </Array>
          </mxGeometry>
        </mxCell>
        <mxCell id="3LLZW3G0a-JlGcTK5IqQ-54" style="edgeStyle=orthogonalEdgeStyle;rounded=0;orthogonalLoop=1;jettySize=auto;html=1;entryX=0;entryY=0.25;entryDx=0;entryDy=0;endArrow=none;endFill=0;exitX=0.5;exitY=1;exitDx=0;exitDy=0;strokeWidth=6;startArrow=classic;startFill=1;endSize=6;startSize=0;" edge="1" parent="1" source="3LLZW3G0a-JlGcTK5IqQ-46" target="3LLZW3G0a-JlGcTK5IqQ-22">
          <mxGeometry relative="1" as="geometry" />
        </mxCell>
        <mxCell id="3LLZW3G0a-JlGcTK5IqQ-46" value="In_Contract" style="rhombus;whiteSpace=wrap;html=1;" vertex="1" parent="1">
          <mxGeometry x="220" y="435" width="90" height="60" as="geometry" />
        </mxCell>
        <mxCell id="3LLZW3G0a-JlGcTK5IqQ-57" style="edgeStyle=orthogonalEdgeStyle;rounded=0;orthogonalLoop=1;jettySize=auto;html=1;entryX=1;entryY=0;entryDx=0;entryDy=0;endArrow=none;endFill=0;" edge="1" parent="1" source="3LLZW3G0a-JlGcTK5IqQ-55" target="3LLZW3G0a-JlGcTK5IqQ-46">
          <mxGeometry relative="1" as="geometry">
            <Array as="points">
              <mxPoint x="300" y="440" />
              <mxPoint x="300" y="450" />
            </Array>
          </mxGeometry>
        </mxCell>
        <mxCell id="3LLZW3G0a-JlGcTK5IqQ-55" value="contract_start" style="ellipse;whiteSpace=wrap;html=1;movable=1;resizable=1;rotatable=1;deletable=1;editable=1;locked=0;connectable=1;" vertex="1" parent="1">
          <mxGeometry x="320" y="425" width="80" height="30" as="geometry" />
        </mxCell>
        <mxCell id="3LLZW3G0a-JlGcTK5IqQ-58" style="edgeStyle=orthogonalEdgeStyle;rounded=0;orthogonalLoop=1;jettySize=auto;html=1;entryX=1;entryY=1;entryDx=0;entryDy=0;endArrow=none;endFill=0;" edge="1" parent="1" source="3LLZW3G0a-JlGcTK5IqQ-56" target="3LLZW3G0a-JlGcTK5IqQ-46">
          <mxGeometry relative="1" as="geometry" />
        </mxCell>
        <mxCell id="3LLZW3G0a-JlGcTK5IqQ-56" value="contract_finish" style="ellipse;whiteSpace=wrap;html=1;movable=1;resizable=1;rotatable=1;deletable=1;editable=1;locked=0;connectable=1;" vertex="1" parent="1">
          <mxGeometry x="320" y="470" width="80" height="30" as="geometry" />
        </mxCell>
        <mxCell id="3LLZW3G0a-JlGcTK5IqQ-60" value="Channel" style="rounded=0;whiteSpace=wrap;html=1;movable=1;resizable=1;rotatable=1;deletable=1;editable=1;locked=0;connectable=1;" vertex="1" parent="1">
          <mxGeometry x="640" y="540" width="100" height="30" as="geometry" />
        </mxCell>
        <mxCell id="3LLZW3G0a-JlGcTK5IqQ-61" value="&lt;u&gt;channel_ID&lt;/u&gt;" style="ellipse;whiteSpace=wrap;html=1;movable=1;resizable=1;rotatable=1;deletable=1;editable=1;locked=0;connectable=1;" vertex="1" parent="1">
          <mxGeometry x="820" y="515" width="80" height="30" as="geometry" />
        </mxCell>
        <mxCell id="3LLZW3G0a-JlGcTK5IqQ-62" value="channel_name" style="ellipse;whiteSpace=wrap;html=1;movable=1;resizable=1;rotatable=1;deletable=1;editable=1;locked=0;connectable=1;" vertex="1" parent="1">
          <mxGeometry x="820" y="565" width="80" height="30" as="geometry" />
        </mxCell>
        <mxCell id="3LLZW3G0a-JlGcTK5IqQ-63" style="edgeStyle=orthogonalEdgeStyle;rounded=0;orthogonalLoop=1;jettySize=auto;html=1;entryX=0;entryY=0.5;entryDx=0;entryDy=0;endArrow=none;endFill=0;" edge="1" target="3LLZW3G0a-JlGcTK5IqQ-61" parent="1" source="3LLZW3G0a-JlGcTK5IqQ-60">
          <mxGeometry relative="1" as="geometry">
            <mxPoint x="740" y="555" as="sourcePoint" />
            <mxPoint x="820" y="530" as="targetPoint" />
            <Array as="points">
              <mxPoint x="780" y="550" />
              <mxPoint x="780" y="530" />
            </Array>
          </mxGeometry>
        </mxCell>
        <mxCell id="3LLZW3G0a-JlGcTK5IqQ-64" style="edgeStyle=orthogonalEdgeStyle;rounded=0;orthogonalLoop=1;jettySize=auto;html=1;entryX=0;entryY=0.5;entryDx=0;entryDy=0;endArrow=none;endFill=0;" edge="1" target="3LLZW3G0a-JlGcTK5IqQ-62" parent="1" source="3LLZW3G0a-JlGcTK5IqQ-60">
          <mxGeometry relative="1" as="geometry">
            <mxPoint x="740" y="565" as="sourcePoint" />
            <Array as="points">
              <mxPoint x="780" y="560" />
              <mxPoint x="780" y="580" />
            </Array>
          </mxGeometry>
        </mxCell>
        <mxCell id="3LLZW3G0a-JlGcTK5IqQ-69" style="edgeStyle=orthogonalEdgeStyle;rounded=0;orthogonalLoop=1;jettySize=auto;html=1;entryX=0;entryY=0.5;entryDx=0;entryDy=0;endArrow=none;endFill=0;" edge="1" parent="1" source="3LLZW3G0a-JlGcTK5IqQ-67" target="3LLZW3G0a-JlGcTK5IqQ-60">
          <mxGeometry relative="1" as="geometry" />
        </mxCell>
        <mxCell id="3LLZW3G0a-JlGcTK5IqQ-67" value="Agreement" style="rhombus;whiteSpace=wrap;html=1;" vertex="1" parent="1">
          <mxGeometry x="540" y="527.5" width="70" height="55" as="geometry" />
        </mxCell>
        <mxCell id="3LLZW3G0a-JlGcTK5IqQ-76" value="Team_Plays_In" style="rhombus;whiteSpace=wrap;html=1;" vertex="1" parent="1">
          <mxGeometry x="140" y="545" width="100" height="60" as="geometry" />
        </mxCell>
        <mxCell id="3LLZW3G0a-JlGcTK5IqQ-77" style="edgeStyle=orthogonalEdgeStyle;rounded=0;orthogonalLoop=1;jettySize=auto;html=1;endArrow=none;endFill=0;startArrow=classic;startFill=1;strokeWidth=6;startSize=0;endSize=1;" edge="1" parent="1" source="3LLZW3G0a-JlGcTK5IqQ-76" target="3LLZW3G0a-JlGcTK5IqQ-28">
          <mxGeometry relative="1" as="geometry">
            <mxPoint x="90" y="630" as="targetPoint" />
            <Array as="points">
              <mxPoint x="80" y="575" />
            </Array>
          </mxGeometry>
        </mxCell>
        <mxCell id="3LLZW3G0a-JlGcTK5IqQ-81" style="edgeStyle=orthogonalEdgeStyle;rounded=0;orthogonalLoop=1;jettySize=auto;html=1;entryX=1;entryY=0.5;entryDx=0;entryDy=0;endArrow=none;endFill=0;strokeWidth=6;" edge="1" parent="1" source="3LLZW3G0a-JlGcTK5IqQ-80" target="3LLZW3G0a-JlGcTK5IqQ-28">
          <mxGeometry relative="1" as="geometry" />
        </mxCell>
        <mxCell id="3LLZW3G0a-JlGcTK5IqQ-91" style="edgeStyle=orthogonalEdgeStyle;rounded=0;orthogonalLoop=1;jettySize=auto;html=1;entryX=0.5;entryY=1;entryDx=0;entryDy=0;endArrow=none;endFill=0;" edge="1" parent="1" source="3LLZW3G0a-JlGcTK5IqQ-80" target="3LLZW3G0a-JlGcTK5IqQ-90">
          <mxGeometry relative="1" as="geometry" />
        </mxCell>
        <mxCell id="3LLZW3G0a-JlGcTK5IqQ-80" value="Player_Plays_In" style="rhombus;whiteSpace=wrap;html=1;" vertex="1" parent="1">
          <mxGeometry x="230" y="700" width="120" height="60" as="geometry" />
        </mxCell>
        <mxCell id="3LLZW3G0a-JlGcTK5IqQ-90" value="&lt;u&gt;position_ID (FK)&lt;/u&gt;" style="ellipse;whiteSpace=wrap;html=1;movable=1;resizable=1;rotatable=1;deletable=1;editable=1;locked=0;connectable=1;" vertex="1" parent="1">
          <mxGeometry x="235" y="630" width="110" height="30" as="geometry" />
        </mxCell>
        <mxCell id="3LLZW3G0a-JlGcTK5IqQ-94" value="Rates" style="rhombus;whiteSpace=wrap;html=1;" vertex="1" parent="1">
          <mxGeometry y="470" width="80" height="60" as="geometry" />
        </mxCell>
        <mxCell id="3LLZW3G0a-JlGcTK5IqQ-95" style="edgeStyle=orthogonalEdgeStyle;rounded=0;orthogonalLoop=1;jettySize=auto;html=1;exitX=0.5;exitY=1;exitDx=0;exitDy=0;entryX=0.402;entryY=0;entryDx=0;entryDy=0;entryPerimeter=0;endArrow=none;endFill=0;strokeWidth=6;startArrow=classic;startFill=1;startSize=1;" edge="1" parent="1" source="3LLZW3G0a-JlGcTK5IqQ-94" target="3LLZW3G0a-JlGcTK5IqQ-28">
          <mxGeometry relative="1" as="geometry" />
        </mxCell>
        <mxCell id="3LLZW3G0a-JlGcTK5IqQ-98" value="" style="edgeStyle=orthogonalEdgeStyle;rounded=0;orthogonalLoop=1;jettySize=auto;html=1;startArrow=none;startFill=0;endArrow=none;endFill=0;" edge="1" parent="1" source="3LLZW3G0a-JlGcTK5IqQ-97" target="3LLZW3G0a-JlGcTK5IqQ-94">
          <mxGeometry relative="1" as="geometry">
            <Array as="points" />
          </mxGeometry>
        </mxCell>
        <mxCell id="3LLZW3G0a-JlGcTK5IqQ-97" value="rating" style="ellipse;whiteSpace=wrap;html=1;movable=1;resizable=1;rotatable=1;deletable=1;editable=1;locked=0;connectable=1;" vertex="1" parent="1">
          <mxGeometry x="110" y="485" width="70" height="30" as="geometry" />
        </mxCell>
        <mxCell id="3LLZW3G0a-JlGcTK5IqQ-103" style="edgeStyle=orthogonalEdgeStyle;rounded=0;orthogonalLoop=1;jettySize=auto;html=1;endArrow=none;endFill=0;startArrow=classic;startFill=1;strokeWidth=6;startSize=0;exitX=0.5;exitY=1;exitDx=0;exitDy=0;" edge="1" parent="1" source="3LLZW3G0a-JlGcTK5IqQ-100" target="3LLZW3G0a-JlGcTK5IqQ-28">
          <mxGeometry relative="1" as="geometry">
            <mxPoint x="-65.00113207547157" y="614.9995178197065" as="sourcePoint" />
            <mxPoint x="-0.019999999999772627" y="645.0100000000001" as="targetPoint" />
            <Array as="points">
              <mxPoint x="-75" y="640" />
            </Array>
          </mxGeometry>
        </mxCell>
        <mxCell id="3LLZW3G0a-JlGcTK5IqQ-100" value="Location_Of" style="rhombus;whiteSpace=wrap;html=1;" vertex="1" parent="1">
          <mxGeometry x="-120" y="565" width="90" height="50" as="geometry" />
        </mxCell>
        <mxCell id="3LLZW3G0a-JlGcTK5IqQ-104" value="Datetime_Of" style="rhombus;whiteSpace=wrap;html=1;" vertex="1" parent="1">
          <mxGeometry x="-120" y="675" width="90" height="45" as="geometry" />
        </mxCell>
        <mxCell id="3LLZW3G0a-JlGcTK5IqQ-109" style="edgeStyle=orthogonalEdgeStyle;rounded=0;orthogonalLoop=1;jettySize=auto;html=1;entryX=0.5;entryY=0;entryDx=0;entryDy=0;endArrow=none;endFill=0;" edge="1" parent="1" source="3LLZW3G0a-JlGcTK5IqQ-105" target="3LLZW3G0a-JlGcTK5IqQ-108">
          <mxGeometry relative="1" as="geometry">
            <Array as="points">
              <mxPoint x="-260" y="760" />
              <mxPoint x="-290" y="760" />
            </Array>
          </mxGeometry>
        </mxCell>
        <mxCell id="3LLZW3G0a-JlGcTK5IqQ-110" style="edgeStyle=orthogonalEdgeStyle;rounded=0;orthogonalLoop=1;jettySize=auto;html=1;entryX=0.5;entryY=0;entryDx=0;entryDy=0;endArrow=none;endFill=0;" edge="1" parent="1" source="3LLZW3G0a-JlGcTK5IqQ-105" target="3LLZW3G0a-JlGcTK5IqQ-106">
          <mxGeometry relative="1" as="geometry">
            <Array as="points">
              <mxPoint x="-220" y="760" />
              <mxPoint x="-190" y="760" />
            </Array>
          </mxGeometry>
        </mxCell>
        <mxCell id="3LLZW3G0a-JlGcTK5IqQ-112" style="edgeStyle=orthogonalEdgeStyle;rounded=0;orthogonalLoop=1;jettySize=auto;html=1;entryX=0;entryY=0.5;entryDx=0;entryDy=0;endArrow=none;endFill=0;" edge="1" parent="1" source="3LLZW3G0a-JlGcTK5IqQ-105" target="3LLZW3G0a-JlGcTK5IqQ-104">
          <mxGeometry relative="1" as="geometry" />
        </mxCell>
        <mxCell id="3LLZW3G0a-JlGcTK5IqQ-105" value="Datetime" style="rounded=0;whiteSpace=wrap;html=1;movable=1;resizable=1;rotatable=1;deletable=1;editable=1;locked=0;connectable=1;" vertex="1" parent="1">
          <mxGeometry x="-284.97" y="710" width="100" height="30" as="geometry" />
        </mxCell>
        <mxCell id="3LLZW3G0a-JlGcTK5IqQ-106" value="&lt;u&gt;date&lt;/u&gt;" style="ellipse;whiteSpace=wrap;html=1;movable=1;resizable=1;rotatable=1;deletable=1;editable=1;locked=0;connectable=1;" vertex="1" parent="1">
          <mxGeometry x="-230.00000000000003" y="770" width="80" height="30" as="geometry" />
        </mxCell>
        <mxCell id="3LLZW3G0a-JlGcTK5IqQ-108" value="&lt;u&gt;time_slot&lt;/u&gt;" style="ellipse;whiteSpace=wrap;html=1;movable=1;resizable=1;rotatable=1;deletable=1;editable=1;locked=0;connectable=1;" vertex="1" parent="1">
          <mxGeometry x="-330" y="770" width="80" height="30" as="geometry" />
        </mxCell>
      </root>
    </mxGraphModel>
  </diagram>
</mxfile>
